<svg width="1040" height="170" viewBox="0 0 1040 170" fill="none" xmlns="http://www.w3.org/2000/svg">
<g clip-path="url(#clip0)">
<path d="M128.655 50.525C123.822 46.6583 118.215 44.725 111.835 44.725C105.552 44.725 97.335 45.9817 87.185 48.495C88.7317 53.8117 89.505 59.225 89.505 64.735C89.505 70.245 89.36 74.6917 89.07 78.075C93.2267 77.3017 97.3833 76.915 101.54 76.915C105.697 76.915 109.757 77.6883 113.72 79.235C113.72 83.4883 112.85 86.8233 111.11 89.24C106.76 87.5967 101.733 86.775 96.03 86.775C94.3867 86.775 91.7283 87.065 88.055 87.645C85.8317 102.628 81.4333 114.567 74.86 123.46C68.3833 132.257 60.7467 136.655 51.95 136.655C46.6333 136.655 42.3317 135.06 39.045 131.87C35.7583 128.68 34.115 124.427 34.115 119.11C34.115 111.86 37.1117 104.997 43.105 98.52C49.195 91.9467 57.17 86.7267 67.03 82.86C67.7067 79.96 68.045 75.7067 68.045 70.1C68.045 64.3967 67.5133 59.4183 66.45 55.165C64.0333 55.745 61.3267 56.035 58.33 56.035C52.6267 56.035 48.0833 54.73 44.7 52.12C41.4133 49.51 39.77 46.175 39.77 42.115C39.77 37.9583 41.7033 34.575 45.57 31.965C49.4367 29.355 54.4633 28.05 60.65 28.05C70.0267 28.05 77.2767 31.675 82.4 38.925C89.94 34.865 95.305 32.0617 98.495 30.515C106.325 26.5517 112.705 24.57 117.635 24.57C122.662 24.57 126.625 26.8417 129.525 31.385C132.425 35.9283 133.875 41.0517 133.875 46.755C133.488 47.5283 131.748 48.785 128.655 50.525ZM49.775 122.735C53.255 122.735 56.3967 119.932 59.2 114.325C62.0033 108.718 64.0817 101.855 65.435 93.735C59.5383 96.055 54.56 99.4383 50.5 103.885C46.5367 108.332 44.555 112.537 44.555 116.5C44.555 118.433 45.0383 119.98 46.005 121.14C46.9717 122.203 48.2283 122.735 49.775 122.735ZM50.645 43.275C50.645 44.8217 51.4183 46.03 52.965 46.9C54.6083 47.6733 56.3967 48.06 58.33 48.06C60.2633 48.06 62.0033 47.77 63.55 47.19C61.1333 42.4533 58.0883 40.085 54.415 40.085C51.9017 40.085 50.645 41.1483 50.645 43.275ZM141.504 132.74C134.834 132.74 129.614 130.42 125.844 125.78C122.074 121.043 120.189 114.47 120.189 106.06C120.189 95.33 123.041 86.0983 128.744 78.365C134.544 70.6317 142.519 66.765 152.669 66.765L157.889 67.055C159.533 66.185 161.369 65.75 163.399 65.75C171.036 65.75 174.854 72.9517 174.854 87.355C178.818 87.1617 182.829 86.63 186.889 85.76L189.209 85.18L190.079 90.835C186.889 92.1883 182.588 93.3967 177.174 94.46L174.274 95.04C172.438 105.19 168.716 114.035 163.109 121.575C157.503 129.018 150.301 132.74 141.504 132.74ZM149.334 120.27C153.394 120.27 157.019 117.66 160.209 112.44C163.496 107.22 165.768 101.71 167.024 95.91C156.681 95.91 151.509 92.0433 151.509 84.31C151.509 81.2167 152.138 78.3167 153.394 75.61L154.119 74.16C153.733 73.9667 153.249 73.87 152.669 73.87C152.089 73.87 151.654 73.9667 151.364 74.16C148.948 75.7067 146.676 79.3317 144.549 85.035C142.423 90.7383 141.359 97.2633 141.359 104.61C141.359 115.05 144.018 120.27 149.334 120.27ZM181.453 131.435H180.438C180.245 130.662 180.148 128.922 180.148 126.215C180.148 123.412 181.453 115.968 184.063 103.885C186.673 91.8017 187.978 84.89 187.978 83.15C187.978 80.1533 186.625 76.8667 183.918 73.29L182.613 71.55L182.758 69.665C187.978 68.215 196.34 67.49 207.843 67.49C209.003 70.0033 209.583 73.5317 209.583 78.075C210.646 76.335 212.87 74.015 216.253 71.115C219.636 68.215 223.116 66.765 226.693 66.765C231.913 66.765 234.523 71.3083 234.523 80.395C234.04 80.975 233.363 81.7483 232.493 82.715C231.72 83.585 230.076 84.8417 227.563 86.485C225.146 88.1283 222.778 89.1433 220.458 89.53C220.361 89.53 219.54 88.225 217.993 85.615C216.446 83.005 215.286 81.7 214.513 81.7C212.096 82.57 209.97 84.02 208.133 86.05C203.686 106.06 201.463 119.013 201.463 124.91C201.463 127.037 201.511 128.535 201.608 129.405C198.225 130.758 191.506 131.435 181.453 131.435ZM235.286 131.435H232.531C232.531 126.892 233.884 118.192 236.591 105.335C239.394 92.4783 240.796 85.18 240.796 83.44C240.796 80.25 239.442 76.8667 236.736 73.29L235.431 71.55L235.576 69.665C240.796 68.215 249.157 67.49 260.661 67.49C262.014 69.3267 262.691 72.3233 262.691 76.48C271.391 70.0033 278.302 66.765 283.426 66.765C289.902 66.765 293.721 70.1 294.881 76.77C297.491 74.6433 300.874 72.4683 305.031 70.245C309.284 67.925 313.054 66.765 316.341 66.765C319.724 66.765 322.527 67.8767 324.751 70.1C326.974 72.2267 328.086 75.2233 328.086 79.09C328.086 82.9567 327.022 89.3367 324.896 98.23C322.769 107.123 321.706 113.117 321.706 116.21C321.706 119.207 322.141 120.705 323.011 120.705C323.591 120.705 325.572 119.787 328.956 117.95L330.551 117.08L333.161 122.155C330.647 124.668 327.216 127.085 322.866 129.405C318.612 131.628 314.842 132.74 311.556 132.74C304.306 132.74 300.681 128.632 300.681 120.415C300.681 117.418 301.696 111.425 303.726 102.435C305.852 93.3483 306.916 87.4517 306.916 84.745C306.916 81.9417 306.094 80.54 304.451 80.54C301.647 80.54 298.457 81.6033 294.881 83.73C294.687 85.6633 293.334 92.2367 290.821 103.45C288.404 114.663 287.196 123.363 287.196 129.55C284.392 130.807 277.819 131.435 267.476 131.435C267.282 130.372 267.186 127.81 267.186 123.75C267.186 119.69 268.297 112.778 270.521 103.015C272.841 93.2517 274.001 87.065 274.001 84.455C274.001 81.845 273.082 80.54 271.246 80.54C268.346 80.54 265.156 81.7 261.676 84.02C261.482 84.89 260.516 89.1433 258.776 96.78C255.296 112.053 253.556 122.928 253.556 129.405C250.172 130.758 244.082 131.435 235.286 131.435ZM455.188 50.525C450.355 46.6583 444.748 44.725 438.368 44.725C432.085 44.725 423.868 45.9817 413.718 48.495C415.265 53.8117 416.038 59.225 416.038 64.735C416.038 70.245 415.893 74.6917 415.603 78.075C419.76 77.3017 423.917 76.915 428.073 76.915C432.23 76.915 436.29 77.6883 440.253 79.235C440.253 83.4883 439.383 86.8233 437.643 89.24C433.293 87.5967 428.267 86.775 422.563 86.775C420.92 86.775 418.262 87.065 414.588 87.645C412.365 102.628 407.967 114.567 401.393 123.46C394.917 132.257 387.28 136.655 378.483 136.655C373.167 136.655 368.865 135.06 365.578 131.87C362.292 128.68 360.648 124.427 360.648 119.11C360.648 111.86 363.645 104.997 369.638 98.52C375.728 91.9467 383.703 86.7267 393.563 82.86C394.24 79.96 394.578 75.7067 394.578 70.1C394.578 64.3967 394.047 59.4183 392.983 55.165C390.567 55.745 387.86 56.035 384.863 56.035C379.16 56.035 374.617 54.73 371.233 52.12C367.947 49.51 366.303 46.175 366.303 42.115C366.303 37.9583 368.237 34.575 372.103 31.965C375.97 29.355 380.997 28.05 387.183 28.05C396.56 28.05 403.81 31.675 408.933 38.925C416.473 34.865 421.838 32.0617 425.028 30.515C432.858 26.5517 439.238 24.57 444.168 24.57C449.195 24.57 453.158 26.8417 456.058 31.385C458.958 35.9283 460.408 41.0517 460.408 46.755C460.022 47.5283 458.282 48.785 455.188 50.525ZM376.308 122.735C379.788 122.735 382.93 119.932 385.733 114.325C388.537 108.718 390.615 101.855 391.968 93.735C386.072 96.055 381.093 99.4383 377.033 103.885C373.07 108.332 371.088 112.537 371.088 116.5C371.088 118.433 371.572 119.98 372.538 121.14C373.505 122.203 374.762 122.735 376.308 122.735ZM377.178 43.275C377.178 44.8217 377.952 46.03 379.498 46.9C381.142 47.6733 382.93 48.06 384.863 48.06C386.797 48.06 388.537 47.77 390.083 47.19C387.667 42.4533 384.622 40.085 380.948 40.085C378.435 40.085 377.178 41.1483 377.178 43.275ZM451.204 131.435H450.189C449.996 130.662 449.899 128.922 449.899 126.215C449.899 123.412 451.204 115.968 453.814 103.885C456.424 91.8017 457.729 84.89 457.729 83.15C457.729 80.1533 456.376 76.8667 453.669 73.29L452.364 71.55L452.509 69.665C457.729 68.215 466.091 67.49 477.594 67.49C478.754 70.0033 479.334 73.5317 479.334 78.075C480.397 76.335 482.621 74.015 486.004 71.115C489.387 68.215 492.867 66.765 496.444 66.765C501.664 66.765 504.274 71.3083 504.274 80.395C503.791 80.975 503.114 81.7483 502.244 82.715C501.471 83.585 499.827 84.8417 497.314 86.485C494.897 88.1283 492.529 89.1433 490.209 89.53C490.112 89.53 489.291 88.225 487.744 85.615C486.197 83.005 485.037 81.7 484.264 81.7C481.847 82.57 479.721 84.02 477.884 86.05C473.437 106.06 471.214 119.013 471.214 124.91C471.214 127.037 471.262 128.535 471.359 129.405C467.976 130.758 461.257 131.435 451.204 131.435ZM544.331 70.97C544.525 70.7767 545.056 69.52 545.926 67.2C550.47 67.2 556.56 68.5533 564.196 71.26C561.78 79.2833 559.846 87.6933 558.396 96.49C556.946 105.19 556.221 111.425 556.221 115.195C556.221 118.868 556.608 120.705 557.381 120.705C557.961 120.705 560.088 119.787 563.761 117.95L565.501 117.08L568.111 122.155C567.241 122.928 566.081 123.895 564.631 125.055C563.278 126.215 560.668 127.81 556.801 129.84C552.935 131.773 549.455 132.74 546.361 132.74C540.368 132.74 536.888 130.033 535.921 124.62C529.735 130.033 524.128 132.74 519.101 132.74C514.171 132.74 509.966 130.807 506.486 126.94C503.103 123.073 501.411 116.983 501.411 108.67C501.411 95.7167 504.07 85.5183 509.386 78.075C514.703 70.535 521.131 66.765 528.671 66.765C534.085 66.765 539.305 68.1667 544.331 70.97ZM527.801 120.415C530.121 120.415 532.731 119.497 535.631 117.66C536.308 104.03 538.58 90.545 542.446 77.205C539.546 75.9483 537.081 75.32 535.051 75.32C531.571 75.32 528.575 78.7517 526.061 85.615C523.645 92.3817 522.436 99.8733 522.436 108.09C522.436 116.307 524.225 120.415 527.801 120.415ZM574.704 131.435H571.949C571.949 126.892 573.303 118.192 576.009 105.335C578.813 92.4783 580.214 85.18 580.214 83.44C580.214 80.25 578.861 76.8667 576.154 73.29L574.849 71.55L574.994 69.665C580.214 68.215 588.576 67.49 600.079 67.49C601.433 69.3267 602.109 72.3233 602.109 76.48C610.809 70.0033 617.721 66.765 622.844 66.765C629.321 66.765 633.139 70.1 634.299 76.77C636.909 74.6433 640.293 72.4683 644.449 70.245C648.703 67.925 652.473 66.765 655.759 66.765C659.143 66.765 661.946 67.8767 664.169 70.1C666.393 72.2267 667.504 75.2233 667.504 79.09C667.504 82.9567 666.441 89.3367 664.314 98.23C662.188 107.123 661.124 113.117 661.124 116.21C661.124 119.207 661.559 120.705 662.429 120.705C663.009 120.705 664.991 119.787 668.374 117.95L669.969 117.08L672.579 122.155C670.066 124.668 666.634 127.085 662.284 129.405C658.031 131.628 654.261 132.74 650.974 132.74C643.724 132.74 640.099 128.632 640.099 120.415C640.099 117.418 641.114 111.425 643.144 102.435C645.271 93.3483 646.334 87.4517 646.334 84.745C646.334 81.9417 645.513 80.54 643.869 80.54C641.066 80.54 637.876 81.6033 634.299 83.73C634.106 85.6633 632.753 92.2367 630.239 103.45C627.823 114.663 626.614 123.363 626.614 129.55C623.811 130.807 617.238 131.435 606.894 131.435C606.701 130.372 606.604 127.81 606.604 123.75C606.604 119.69 607.716 112.778 609.939 103.015C612.259 93.2517 613.419 87.065 613.419 84.455C613.419 81.845 612.501 80.54 610.664 80.54C607.764 80.54 604.574 81.7 601.094 84.02C600.901 84.89 599.934 89.1433 598.194 96.78C594.714 112.053 592.974 122.928 592.974 129.405C589.591 130.758 583.501 131.435 574.704 131.435ZM676.694 105.915C676.694 93.8317 680.319 84.31 687.569 77.35C694.915 70.2933 703.229 66.765 712.509 66.765C718.212 66.765 722.9 68.1667 726.574 70.97C730.247 73.7733 732.084 77.5433 732.084 82.28C732.084 86.92 730.875 90.835 728.459 94.025C726.139 97.215 723.287 99.68 719.904 101.42C713.04 104.803 706.757 106.93 701.054 107.8L697.574 108.235C698.25 117.322 701.972 121.865 708.739 121.865C711.059 121.865 713.524 121.285 716.134 120.125C718.744 118.965 720.774 117.805 722.224 116.645L724.399 114.905L727.879 119.545C727.105 120.608 725.559 122.01 723.239 123.75C720.919 125.49 718.744 126.94 716.714 128.1C711.107 131.193 704.969 132.74 698.299 132.74C691.629 132.74 686.36 130.372 682.494 125.635C678.627 120.898 676.694 114.325 676.694 105.915ZM697.429 101.13C702.359 100.26 706.274 98.1817 709.174 94.895C712.074 91.6083 713.524 87.355 713.524 82.135C713.524 76.915 711.977 74.305 708.884 74.305C705.21 74.305 702.359 77.4467 700.329 83.73C698.395 89.9167 697.429 95.7167 697.429 101.13ZM738.379 119.11L739.974 81.265C739.974 77.9783 738.234 74.595 734.754 71.115L735.044 69.375C735.721 69.1817 736.349 69.0367 736.929 68.94C737.606 68.7467 738.331 68.5533 739.104 68.36C739.974 68.1667 740.941 67.9733 742.004 67.78C743.067 67.5867 744.179 67.3933 745.339 67.2C748.046 66.91 750.559 66.765 752.879 66.765C755.296 66.765 757.326 67.7317 758.969 69.665C760.709 71.5983 761.579 74.6917 761.579 78.945C761.579 83.1017 760.902 89.095 759.549 96.925C758.292 104.658 757.664 110.458 757.664 114.325C757.664 118.095 758.582 119.98 760.419 119.98C763.416 119.98 766.702 118.095 770.279 114.325C770.376 112.778 771.004 107.848 772.164 99.535C773.324 91.2217 773.904 85.18 773.904 81.41C773.904 77.64 773.614 74.4017 773.034 71.695C780.477 68.8917 787.147 67.49 793.044 67.49C794.301 68.36 794.929 71.2117 794.929 76.045C794.929 80.7817 794.107 87.4033 792.464 95.91C790.821 104.32 789.999 110.458 789.999 114.325C789.999 118.095 790.772 119.98 792.319 119.98C795.992 119.98 800.004 117.273 804.354 111.86C808.704 106.35 811.024 101.758 811.314 98.085L801.454 87.065C801.841 82.9083 802.856 79.1383 804.499 75.755C806.142 72.3717 807.689 70.0033 809.139 68.65L811.169 66.765C815.326 66.765 818.467 67.8767 820.594 70.1C822.721 72.3233 823.784 74.9333 823.784 77.93C823.784 85.5667 821.899 93.6383 818.129 102.145C814.359 110.652 809.284 117.902 802.904 123.895C796.524 129.792 790.047 132.74 783.474 132.74C780.187 132.74 777.384 131.822 775.064 129.985C772.841 128.052 771.342 125.587 770.569 122.59C763.802 129.357 757.229 132.74 750.849 132.74C746.596 132.74 743.454 131.435 741.424 128.825C739.394 126.118 738.379 122.88 738.379 119.11ZM845.972 132.74C839.302 132.74 834.082 130.42 830.312 125.78C826.542 121.043 824.657 114.47 824.657 106.06C824.657 95.33 827.509 86.0983 833.212 78.365C839.012 70.6317 846.987 66.765 857.137 66.765L862.357 67.055C864.001 66.185 865.837 65.75 867.867 65.75C875.504 65.75 879.322 72.9517 879.322 87.355C883.286 87.1617 887.297 86.63 891.357 85.76L893.677 85.18L894.547 90.835C891.357 92.1883 887.056 93.3967 881.642 94.46L878.742 95.04C876.906 105.19 873.184 114.035 867.577 121.575C861.971 129.018 854.769 132.74 845.972 132.74ZM853.802 120.27C857.862 120.27 861.487 117.66 864.677 112.44C867.964 107.22 870.236 101.71 871.492 95.91C861.149 95.91 855.977 92.0433 855.977 84.31C855.977 81.2167 856.606 78.3167 857.862 75.61L858.587 74.16C858.201 73.9667 857.717 73.87 857.137 73.87C856.557 73.87 856.122 73.9667 855.832 74.16C853.416 75.7067 851.144 79.3317 849.017 85.035C846.891 90.7383 845.827 97.2633 845.827 104.61C845.827 115.05 848.486 120.27 853.802 120.27ZM885.921 131.435H884.906C884.713 130.662 884.616 128.922 884.616 126.215C884.616 123.412 885.921 115.968 888.531 103.885C891.141 91.8017 892.446 84.89 892.446 83.15C892.446 80.1533 891.093 76.8667 888.386 73.29L887.081 71.55L887.226 69.665C892.446 68.215 900.808 67.49 912.311 67.49C913.471 70.0033 914.051 73.5317 914.051 78.075C915.114 76.335 917.338 74.015 920.721 71.115C924.104 68.215 927.584 66.765 931.161 66.765C936.381 66.765 938.991 71.3083 938.991 80.395C938.508 80.975 937.831 81.7483 936.961 82.715C936.188 83.585 934.544 84.8417 932.031 86.485C929.614 88.1283 927.246 89.1433 924.926 89.53C924.829 89.53 924.008 88.225 922.461 85.615C920.914 83.005 919.754 81.7 918.981 81.7C916.564 82.57 914.438 84.02 912.601 86.05C908.154 106.06 905.931 119.013 905.931 124.91C905.931 127.037 905.979 128.535 906.076 129.405C902.693 130.758 895.974 131.435 885.921 131.435ZM952.223 35.3C952.223 32.11 951.933 29.8383 951.353 28.485C958.893 25.875 965.998 24.57 972.668 24.57C973.538 25.44 973.973 27.6633 973.973 31.24C973.973 39.2633 971.315 54.6333 965.998 77.35C974.602 70.2933 983.108 66.765 991.518 66.765C995.288 66.765 998.478 67.925 1001.09 70.245C1003.7 72.565 1005 75.9483 1005 80.395C1005 88.7083 998.188 94.75 984.558 98.52C987.748 108.573 990.552 115.388 992.968 118.965C994.032 120.512 994.805 121.285 995.288 121.285C996.352 121.285 998.575 120.463 1001.96 118.82L1003.55 118.095L1005.87 123.025C1003.55 125.152 1000.31 127.327 996.158 129.55C992.098 131.677 988.377 132.74 984.993 132.74C977.453 132.74 972.185 125.877 969.188 112.15C967.835 106.253 967.013 100.743 966.723 95.62C972.91 94.17 977.502 92.43 980.498 90.4C983.592 88.2733 985.138 85.615 985.138 82.425C985.138 79.1383 983.495 77.495 980.208 77.495C976.922 77.495 971.412 80.7817 963.678 87.355C958.845 107.752 956.428 121.72 956.428 129.26C951.112 130.807 944.2 131.58 935.693 131.58C935.597 129.937 935.548 128.487 935.548 127.23C935.548 123.073 938.303 108.863 943.813 84.6C949.42 60.3367 952.223 43.9033 952.223 35.3Z" fill="#3A9688"/>
</g>
<defs>
<clipPath id="clip0">
<rect width="1040" height="170" fill="white"/>
</clipPath>
</defs>
</svg>
